<?xml version="1.0" encoding="UTF-8" standalone="no"?>
<!DOCTYPE svg PUBLIC "-//W3C//DTD SVG 1.1//EN"
 "http://www.w3.org/Graphics/SVG/1.1/DTD/svg11.dtd">
<!-- Generated by graphviz version 2.40.1 (0)
 -->
<!-- Title: G Pages: 1 -->
<svg width="134pt" height="218pt"
 viewBox="0.00 0.00 134.00 218.00" xmlns="http://www.w3.org/2000/svg" xmlns:xlink="http://www.w3.org/1999/xlink">
<g id="graph0" class="graph" transform="scale(1 1) rotate(0) translate(4 214)">
<title>G</title>
<polygon fill="#ffffff" stroke="transparent" points="-4,4 -4,-214 130,-214 130,4 -4,4"/>
<!-- v1 -->
<g id="node1" class="node">
<title>v1</title>
<ellipse fill="none" stroke="#000000" cx="54" cy="-192" rx="27" ry="18"/>
<text text-anchor="middle" x="54" y="-188.3" font-family="Times,serif" font-size="14.00" fill="#000000">v1</text>
</g>
<!-- v2 -->
<g id="node2" class="node">
<title>v2</title>
<ellipse fill="none" stroke="#000000" cx="27" cy="-105" rx="27" ry="18"/>
<text text-anchor="middle" x="27" y="-101.3" font-family="Times,serif" font-size="14.00" fill="#000000">v2</text>
</g>
<!-- v1&#45;&gt;v2 -->
<g id="edge1" class="edge">
<title>v1&#45;&gt;v2</title>
<path fill="none" stroke="#000000" d="M48.4056,-173.9735C44.6884,-161.9958 39.7364,-146.0396 35.5317,-132.4912"/>
<polygon fill="#000000" stroke="#000000" points="38.8017,-131.2189 32.4949,-122.7057 32.1162,-133.2938 38.8017,-131.2189"/>
<text text-anchor="middle" x="49" y="-144.8" font-family="Times,serif" font-size="14.00" fill="#000000">e1</text>
</g>
<!-- v4 -->
<g id="node3" class="node">
<title>v4</title>
<ellipse fill="none" stroke="#000000" cx="99" cy="-105" rx="27" ry="18"/>
<text text-anchor="middle" x="99" y="-101.3" font-family="Times,serif" font-size="14.00" fill="#000000">v4</text>
</g>
<!-- v1&#45;&gt;v4 -->
<g id="edge2" class="edge">
<title>v1&#45;&gt;v4</title>
<path fill="none" stroke="#000000" d="M62.8906,-174.8116C69.3005,-162.4191 78.0708,-145.4631 85.3629,-131.3651"/>
<polygon fill="#000000" stroke="#000000" points="88.6424,-132.6429 90.1279,-122.1527 82.4249,-129.4269 88.6424,-132.6429"/>
<text text-anchor="middle" x="86" y="-144.8" font-family="Times,serif" font-size="14.00" fill="#000000">e2</text>
</g>
<!-- v3 -->
<g id="node4" class="node">
<title>v3</title>
<ellipse fill="none" stroke="#000000" cx="99" cy="-18" rx="27" ry="18"/>
<text text-anchor="middle" x="99" y="-14.3" font-family="Times,serif" font-size="14.00" fill="#000000">v3</text>
</g>
<!-- v4&#45;&gt;v3 -->
<g id="edge3" class="edge">
<title>v4&#45;&gt;v3</title>
<path fill="none" stroke="#000000" d="M99,-86.9735C99,-75.1918 99,-59.5607 99,-46.1581"/>
<polygon fill="#000000" stroke="#000000" points="102.5001,-46.0033 99,-36.0034 95.5001,-46.0034 102.5001,-46.0033"/>
<text text-anchor="middle" x="106" y="-57.8" font-family="Times,serif" font-size="14.00" fill="#000000">e3</text>
</g>
</g>
</svg>
