<?xml version="1.0" encoding="UTF-8" standalone="no"?>
<!DOCTYPE svg PUBLIC "-//W3C//DTD SVG 1.1//EN"
 "http://www.w3.org/Graphics/SVG/1.1/DTD/svg11.dtd">
<!-- Generated by graphviz version 2.40.1 (0)
 -->
<!-- Title: %3 Pages: 1 -->
<svg width="1142pt" height="203pt"
 viewBox="0.00 0.00 1142.00 203.00" xmlns="http://www.w3.org/2000/svg" xmlns:xlink="http://www.w3.org/1999/xlink">
<g id="graph0" class="graph" transform="scale(1 1) rotate(0) translate(4 199)">
<title>%3</title>
<polygon fill="#ffffff" stroke="transparent" points="-4,4 -4,-199 1138,-199 1138,4 -4,4"/>
<!-- a -->
<g id="node1" class="node">
<title>a</title>
<ellipse fill="none" stroke="#000000" cx="27" cy="-108" rx="27" ry="18"/>
<text text-anchor="middle" x="27" y="-104.3" font-family="Times,serif" font-size="14.00" fill="#000000">a</text>
</g>
<!-- b -->
<g id="node2" class="node">
<title>b</title>
<ellipse fill="none" stroke="#000000" cx="117" cy="-62" rx="27" ry="18"/>
<text text-anchor="middle" x="117" y="-58.3" font-family="Times,serif" font-size="14.00" fill="#000000">b</text>
</g>
<!-- a&#45;&#45;b -->
<g id="edge1" class="edge">
<title>a&#45;&#45;b</title>
<path fill="none" stroke="#000000" d="M48.7865,-96.8647C62.9367,-89.6323 81.304,-80.2446 95.4141,-73.0328"/>
</g>
<!-- c -->
<g id="node3" class="node">
<title>c</title>
<ellipse fill="none" stroke="#000000" cx="207" cy="-100" rx="27" ry="18"/>
<text text-anchor="middle" x="207" y="-96.3" font-family="Times,serif" font-size="14.00" fill="#000000">c</text>
</g>
<!-- a&#45;&#45;c -->
<g id="edge2" class="edge">
<title>a&#45;&#45;c</title>
<path fill="none" stroke="#000000" d="M53.9478,-106.8023C87.8815,-105.2942 145.8476,-102.7179 179.868,-101.2059"/>
</g>
<!-- d -->
<g id="node4" class="node">
<title>d</title>
<ellipse fill="none" stroke="#000000" cx="207" cy="-154" rx="27" ry="18"/>
<text text-anchor="middle" x="207" y="-150.3" font-family="Times,serif" font-size="14.00" fill="#000000">d</text>
</g>
<!-- a&#45;&#45;d -->
<g id="edge3" class="edge">
<title>a&#45;&#45;d</title>
<path fill="none" stroke="#000000" d="M52.4078,-114.4931C86.7134,-123.2601 147.4825,-138.79 181.7214,-147.5399"/>
</g>
<!-- b&#45;&#45;c -->
<g id="edge4" class="edge">
<title>b&#45;&#45;c</title>
<path fill="none" stroke="#000000" d="M140.1772,-71.7859C153.6146,-77.4595 170.4773,-84.5793 183.9013,-90.2472"/>
</g>
<!-- e -->
<g id="node5" class="node">
<title>e</title>
<ellipse fill="none" stroke="#000000" cx="297" cy="-54" rx="27" ry="18"/>
<text text-anchor="middle" x="297" y="-50.3" font-family="Times,serif" font-size="14.00" fill="#000000">e</text>
</g>
<!-- b&#45;&#45;e -->
<g id="edge5" class="edge">
<title>b&#45;&#45;e</title>
<path fill="none" stroke="#000000" d="M143.9478,-60.8023C177.8815,-59.2942 235.8476,-56.7179 269.868,-55.2059"/>
</g>
<!-- c&#45;&#45;e -->
<g id="edge6" class="edge">
<title>c&#45;&#45;e</title>
<path fill="none" stroke="#000000" d="M228.7865,-88.8647C242.9367,-81.6323 261.304,-72.2446 275.4141,-65.0328"/>
</g>
<!-- f -->
<g id="node6" class="node">
<title>f</title>
<ellipse fill="none" stroke="#000000" cx="297" cy="-108" rx="27" ry="18"/>
<text text-anchor="middle" x="297" y="-104.3" font-family="Times,serif" font-size="14.00" fill="#000000">f</text>
</g>
<!-- c&#45;&#45;f -->
<g id="edge7" class="edge">
<title>c&#45;&#45;f</title>
<path fill="none" stroke="#000000" d="M234.003,-102.4003C245.394,-103.4128 258.6271,-104.5891 270.0161,-105.6014"/>
</g>
<!-- d&#45;&#45;f -->
<g id="edge8" class="edge">
<title>d&#45;&#45;f</title>
<path fill="none" stroke="#000000" d="M228.7865,-142.8647C242.9367,-135.6323 261.304,-126.2446 275.4141,-119.0328"/>
</g>
<!-- g -->
<g id="node7" class="node">
<title>g</title>
<ellipse fill="none" stroke="#000000" cx="387" cy="-177" rx="27" ry="18"/>
<text text-anchor="middle" x="387" y="-173.3" font-family="Times,serif" font-size="14.00" fill="#000000">g</text>
</g>
<!-- d&#45;&#45;g -->
<g id="edge9" class="edge">
<title>d&#45;&#45;g</title>
<path fill="none" stroke="#000000" d="M233.5596,-157.3937C267.5916,-161.7423 326.247,-169.2371 360.3314,-173.5923"/>
</g>
<!-- h -->
<g id="node8" class="node">
<title>h</title>
<ellipse fill="none" stroke="#000000" cx="387" cy="-31" rx="27" ry="18"/>
<text text-anchor="middle" x="387" y="-27.3" font-family="Times,serif" font-size="14.00" fill="#000000">h</text>
</g>
<!-- e&#45;&#45;h -->
<g id="edge10" class="edge">
<title>e&#45;&#45;h</title>
<path fill="none" stroke="#000000" d="M322.5497,-47.4706C334.8142,-44.3364 349.4658,-40.5921 361.698,-37.4661"/>
</g>
<!-- f&#45;&#45;g -->
<g id="edge11" class="edge">
<title>f&#45;&#45;g</title>
<path fill="none" stroke="#000000" d="M314.7811,-121.6322C330.5593,-133.7288 353.4888,-151.3081 369.2558,-163.3961"/>
</g>
<!-- f&#45;&#45;h -->
<g id="edge12" class="edge">
<title>f&#45;&#45;h</title>
<path fill="none" stroke="#000000" d="M313.9283,-93.5169C330.0189,-79.7505 354.0822,-59.163 370.1476,-45.4182"/>
</g>
<!-- i -->
<g id="node9" class="node">
<title>i</title>
<ellipse fill="none" stroke="#000000" cx="387" cy="-85" rx="27" ry="18"/>
<text text-anchor="middle" x="387" y="-81.3" font-family="Times,serif" font-size="14.00" fill="#000000">i</text>
</g>
<!-- f&#45;&#45;i -->
<g id="edge13" class="edge">
<title>f&#45;&#45;i</title>
<path fill="none" stroke="#000000" d="M322.5497,-101.4706C334.8142,-98.3364 349.4658,-94.5921 361.698,-91.4661"/>
</g>
<!-- j -->
<g id="node10" class="node">
<title>j</title>
<ellipse fill="none" stroke="#000000" cx="477" cy="-131" rx="27" ry="18"/>
<text text-anchor="middle" x="477" y="-127.3" font-family="Times,serif" font-size="14.00" fill="#000000">j</text>
</g>
<!-- f&#45;&#45;j -->
<g id="edge14" class="edge">
<title>f&#45;&#45;j</title>
<path fill="none" stroke="#000000" d="M323.5596,-111.3937C357.5916,-115.7423 416.247,-123.2371 450.3314,-127.5923"/>
</g>
<!-- k -->
<g id="node11" class="node">
<title>k</title>
<ellipse fill="none" stroke="#000000" cx="567" cy="-177" rx="27" ry="18"/>
<text text-anchor="middle" x="567" y="-173.3" font-family="Times,serif" font-size="14.00" fill="#000000">k</text>
</g>
<!-- g&#45;&#45;k -->
<g id="edge15" class="edge">
<title>g&#45;&#45;k</title>
<path fill="none" stroke="#000000" d="M414.3381,-177C448.3667,-177 506.1212,-177 539.9944,-177"/>
</g>
<!-- o -->
<g id="node12" class="node">
<title>o</title>
<ellipse fill="none" stroke="#000000" cx="657" cy="-39" rx="27" ry="18"/>
<text text-anchor="middle" x="657" y="-35.3" font-family="Times,serif" font-size="14.00" fill="#000000">o</text>
</g>
<!-- h&#45;&#45;o -->
<g id="edge16" class="edge">
<title>h&#45;&#45;o</title>
<path fill="none" stroke="#000000" d="M410.5579,-22.104C422.2368,-18.1577 436.6639,-13.9672 450,-12 515.792,-2.2949 593.6211,-20.3755 632.4273,-31.3949"/>
</g>
<!-- l -->
<g id="node13" class="node">
<title>l</title>
<ellipse fill="none" stroke="#000000" cx="477" cy="-39" rx="27" ry="18"/>
<text text-anchor="middle" x="477" y="-35.3" font-family="Times,serif" font-size="14.00" fill="#000000">l</text>
</g>
<!-- h&#45;&#45;l -->
<g id="edge17" class="edge">
<title>h&#45;&#45;l</title>
<path fill="none" stroke="#000000" d="M414.003,-33.4003C425.394,-34.4128 438.6271,-35.5891 450.0161,-36.6014"/>
</g>
<!-- i&#45;&#45;j -->
<g id="edge18" class="edge">
<title>i&#45;&#45;j</title>
<path fill="none" stroke="#000000" d="M408.7865,-96.1353C422.9367,-103.3677 441.304,-112.7554 455.4141,-119.9672"/>
</g>
<!-- i&#45;&#45;l -->
<g id="edge19" class="edge">
<title>i&#45;&#45;l</title>
<path fill="none" stroke="#000000" d="M408.7865,-73.8647C422.9367,-66.6323 441.304,-57.2446 455.4141,-50.0328"/>
</g>
<!-- m -->
<g id="node14" class="node">
<title>m</title>
<ellipse fill="none" stroke="#000000" cx="567" cy="-85" rx="27" ry="18"/>
<text text-anchor="middle" x="567" y="-81.3" font-family="Times,serif" font-size="14.00" fill="#000000">m</text>
</g>
<!-- i&#45;&#45;m -->
<g id="edge20" class="edge">
<title>i&#45;&#45;m</title>
<path fill="none" stroke="#000000" d="M414.3381,-85C448.3667,-85 506.1212,-85 539.9944,-85"/>
</g>
<!-- j&#45;&#45;k -->
<g id="edge21" class="edge">
<title>j&#45;&#45;k</title>
<path fill="none" stroke="#000000" d="M498.7865,-142.1353C512.9367,-149.3677 531.304,-158.7554 545.4141,-165.9672"/>
</g>
<!-- j&#45;&#45;m -->
<g id="edge22" class="edge">
<title>j&#45;&#45;m</title>
<path fill="none" stroke="#000000" d="M498.7865,-119.8647C512.9367,-112.6323 531.304,-103.2446 545.4141,-96.0328"/>
</g>
<!-- n -->
<g id="node15" class="node">
<title>n</title>
<ellipse fill="none" stroke="#000000" cx="657" cy="-131" rx="27" ry="18"/>
<text text-anchor="middle" x="657" y="-127.3" font-family="Times,serif" font-size="14.00" fill="#000000">n</text>
</g>
<!-- j&#45;&#45;n -->
<g id="edge23" class="edge">
<title>j&#45;&#45;n</title>
<path fill="none" stroke="#000000" d="M504.3381,-131C538.3667,-131 596.1212,-131 629.9944,-131"/>
</g>
<!-- k&#45;&#45;n -->
<g id="edge24" class="edge">
<title>k&#45;&#45;n</title>
<path fill="none" stroke="#000000" d="M588.7865,-165.8647C602.9367,-158.6323 621.304,-149.2446 635.4141,-142.0328"/>
</g>
<!-- r -->
<g id="node16" class="node">
<title>r</title>
<ellipse fill="none" stroke="#000000" cx="927" cy="-154" rx="27" ry="18"/>
<text text-anchor="middle" x="927" y="-150.3" font-family="Times,serif" font-size="14.00" fill="#000000">r</text>
</g>
<!-- k&#45;&#45;r -->
<g id="edge25" class="edge">
<title>k&#45;&#45;r</title>
<path fill="none" stroke="#000000" d="M594.05,-175.7943C646.2741,-173.3905 764.6097,-167.5747 864,-160 875.8316,-159.0983 888.893,-157.8895 900.0407,-156.7933"/>
</g>
<!-- p -->
<g id="node17" class="node">
<title>p</title>
<ellipse fill="none" stroke="#000000" cx="747" cy="-64" rx="27" ry="18"/>
<text text-anchor="middle" x="747" y="-60.3" font-family="Times,serif" font-size="14.00" fill="#000000">p</text>
</g>
<!-- o&#45;&#45;p -->
<g id="edge33" class="edge">
<title>o&#45;&#45;p</title>
<path fill="none" stroke="#000000" d="M682.07,-45.9639C694.553,-49.4314 709.6,-53.6111 722.0644,-57.0735"/>
</g>
<!-- s -->
<g id="node19" class="node">
<title>s</title>
<ellipse fill="none" stroke="#000000" cx="837" cy="-18" rx="27" ry="18"/>
<text text-anchor="middle" x="837" y="-14.3" font-family="Times,serif" font-size="14.00" fill="#000000">s</text>
</g>
<!-- o&#45;&#45;s -->
<g id="edge34" class="edge">
<title>o&#45;&#45;s</title>
<path fill="none" stroke="#000000" d="M683.9478,-35.8561C717.9796,-31.8857 776.1829,-25.0953 810.1623,-21.1311"/>
</g>
<!-- l&#45;&#45;o -->
<g id="edge26" class="edge">
<title>l&#45;&#45;o</title>
<path fill="none" stroke="#000000" d="M504.3381,-39C538.3667,-39 596.1212,-39 629.9944,-39"/>
</g>
<!-- l&#45;&#45;m -->
<g id="edge27" class="edge">
<title>l&#45;&#45;m</title>
<path fill="none" stroke="#000000" d="M498.7865,-50.1353C512.9367,-57.3677 531.304,-66.7554 545.4141,-73.9672"/>
</g>
<!-- m&#45;&#45;o -->
<g id="edge28" class="edge">
<title>m&#45;&#45;o</title>
<path fill="none" stroke="#000000" d="M588.7865,-73.8647C602.9367,-66.6323 621.304,-57.2446 635.4141,-50.0328"/>
</g>
<!-- m&#45;&#45;n -->
<g id="edge29" class="edge">
<title>m&#45;&#45;n</title>
<path fill="none" stroke="#000000" d="M588.7865,-96.1353C602.9367,-103.3677 621.304,-112.7554 635.4141,-119.9672"/>
</g>
<!-- m&#45;&#45;p -->
<g id="edge30" class="edge">
<title>m&#45;&#45;p</title>
<path fill="none" stroke="#000000" d="M593.9478,-81.8561C627.9796,-77.8857 686.1829,-71.0953 720.1623,-67.1311"/>
</g>
<!-- n&#45;&#45;r -->
<g id="edge31" class="edge">
<title>n&#45;&#45;r</title>
<path fill="none" stroke="#000000" d="M683.8757,-133.2894C735.4959,-137.6867 847.9835,-147.269 899.8322,-151.6857"/>
</g>
<!-- q -->
<g id="node18" class="node">
<title>q</title>
<ellipse fill="none" stroke="#000000" cx="837" cy="-110" rx="27" ry="18"/>
<text text-anchor="middle" x="837" y="-106.3" font-family="Times,serif" font-size="14.00" fill="#000000">q</text>
</g>
<!-- n&#45;&#45;q -->
<g id="edge32" class="edge">
<title>n&#45;&#45;q</title>
<path fill="none" stroke="#000000" d="M683.9478,-127.8561C717.9796,-123.8857 776.1829,-117.0953 810.1623,-113.1311"/>
</g>
<!-- t -->
<g id="node20" class="node">
<title>t</title>
<ellipse fill="none" stroke="#000000" cx="1017" cy="-83" rx="27" ry="18"/>
<text text-anchor="middle" x="1017" y="-79.3" font-family="Times,serif" font-size="14.00" fill="#000000">t</text>
</g>
<!-- r&#45;&#45;t -->
<g id="edge40" class="edge">
<title>r&#45;&#45;t</title>
<path fill="none" stroke="#000000" d="M944.7811,-139.9727C960.6618,-127.4446 983.7869,-109.2015 999.5621,-96.7566"/>
</g>
<!-- p&#45;&#45;q -->
<g id="edge35" class="edge">
<title>p&#45;&#45;q</title>
<path fill="none" stroke="#000000" d="M768.7865,-75.1353C782.9367,-82.3677 801.304,-91.7554 815.4141,-98.9672"/>
</g>
<!-- p&#45;&#45;s -->
<g id="edge36" class="edge">
<title>p&#45;&#45;s</title>
<path fill="none" stroke="#000000" d="M768.7865,-52.8647C782.9367,-45.6323 801.304,-36.2446 815.4141,-29.0328"/>
</g>
<!-- p&#45;&#45;t -->
<g id="edge37" class="edge">
<title>p&#45;&#45;t</title>
<path fill="none" stroke="#000000" d="M773.8757,-65.8913C825.4959,-69.5238 937.9835,-77.4396 989.8322,-81.0882"/>
</g>
<!-- q&#45;&#45;r -->
<g id="edge38" class="edge">
<title>q&#45;&#45;r</title>
<path fill="none" stroke="#000000" d="M858.7865,-120.6512C872.8327,-127.5182 891.0341,-136.4167 905.1022,-143.2944"/>
</g>
<!-- q&#45;&#45;t -->
<g id="edge39" class="edge">
<title>q&#45;&#45;t</title>
<path fill="none" stroke="#000000" d="M863.5596,-106.0161C897.6894,-100.8966 956.5843,-92.0624 990.6246,-86.9563"/>
</g>
<!-- z -->
<g id="node21" class="node">
<title>z</title>
<ellipse fill="none" stroke="#000000" cx="1107" cy="-45" rx="27" ry="18"/>
<text text-anchor="middle" x="1107" y="-41.3" font-family="Times,serif" font-size="14.00" fill="#000000">z</text>
</g>
<!-- s&#45;&#45;z -->
<g id="edge41" class="edge">
<title>s&#45;&#45;z</title>
<path fill="none" stroke="#000000" d="M863.8757,-20.6876C915.6293,-25.8629 1028.5652,-37.1565 1080.233,-42.3233"/>
</g>
<!-- t&#45;&#45;z -->
<g id="edge42" class="edge">
<title>t&#45;&#45;z</title>
<path fill="none" stroke="#000000" d="M1040.1772,-73.2141C1053.6146,-67.5405 1070.4773,-60.4207 1083.9013,-54.7528"/>
</g>
</g>
</svg>
