<?xml version="1.0" encoding="UTF-8" standalone="no"?>
<!DOCTYPE svg PUBLIC "-//W3C//DTD SVG 1.1//EN"
 "http://www.w3.org/Graphics/SVG/1.1/DTD/svg11.dtd">
<!-- Generated by graphviz version 2.40.1 (0)
 -->
<!-- Title: ethane Pages: 1 -->
<svg width="636pt" height="369pt"
 viewBox="0.00 0.00 636.26 369.45" xmlns="http://www.w3.org/2000/svg" xmlns:xlink="http://www.w3.org/1999/xlink">
<g id="graph0" class="graph" transform="scale(1 1) rotate(0) translate(4 365.4486)">
<title>ethane</title>
<polygon fill="#ffffff" stroke="transparent" points="-4,4 -4,-365.4486 632.2564,-365.4486 632.2564,4 -4,4"/>
<!-- C_0 -->
<g id="node1" class="node">
<title>C_0</title>
<ellipse fill="none" stroke="#000000" cx="204.5175" cy="-180.6402" rx="27" ry="18"/>
<text text-anchor="middle" x="204.5175" y="-176.9402" font-family="Times,serif" font-size="14.00" fill="#000000">C_0</text>
</g>
<!-- H_0 -->
<g id="node2" class="node">
<title>H_0</title>
<ellipse fill="none" stroke="#000000" cx="149.7957" cy="-343.4486" rx="27.0966" ry="18"/>
<text text-anchor="middle" x="149.7957" y="-339.7486" font-family="Times,serif" font-size="14.00" fill="#000000">H_0</text>
</g>
<!-- C_0&#45;&#45;H_0 -->
<g id="edge1" class="edge">
<title>C_0&#45;&#45;H_0</title>
<path fill="none" stroke="#000000" d="M198.5571,-198.3735C188.0309,-229.6911 166.2697,-294.4351 155.7487,-325.7372"/>
</g>
<!-- H_1 -->
<g id="node3" class="node">
<title>H_1</title>
<ellipse fill="none" stroke="#000000" cx="27.2976" cy="-180.2816" rx="27.0966" ry="18"/>
<text text-anchor="middle" x="27.2976" y="-176.5816" font-family="Times,serif" font-size="14.00" fill="#000000">H_1</text>
</g>
<!-- C_0&#45;&#45;H_1 -->
<g id="edge2" class="edge">
<title>C_0&#45;&#45;H_1</title>
<path fill="none" stroke="#000000" d="M177.2152,-180.5849C143.9124,-180.5176 87.9478,-180.4043 54.6308,-180.3369"/>
</g>
<!-- H_2 -->
<g id="node4" class="node">
<title>H_2</title>
<ellipse fill="none" stroke="#000000" cx="150.5876" cy="-18" rx="27.0966" ry="18"/>
<text text-anchor="middle" x="150.5876" y="-14.3" font-family="Times,serif" font-size="14.00" fill="#000000">H_2</text>
</g>
<!-- C_0&#45;&#45;H_2 -->
<g id="edge3" class="edge">
<title>C_0&#45;&#45;H_2</title>
<path fill="none" stroke="#000000" d="M198.6434,-162.9252C188.2695,-131.64 166.8232,-66.9628 156.4544,-35.6931"/>
</g>
<!-- C_1 -->
<g id="node5" class="node">
<title>C_1</title>
<ellipse fill="none" stroke="#000000" cx="424.0166" cy="-180.7018" rx="27" ry="18"/>
<text text-anchor="middle" x="424.0166" y="-177.0018" font-family="Times,serif" font-size="14.00" fill="#000000">C_1</text>
</g>
<!-- C_0&#45;&#45;C_1 -->
<g id="edge4" class="edge">
<title>C_0&#45;&#45;C_1</title>
<path fill="none" stroke="#000000" d="M231.8734,-180.6479C274.1651,-180.6597 354.9239,-180.6824 397.0055,-180.6942"/>
</g>
<!-- H_3 -->
<g id="node6" class="node">
<title>H_3</title>
<ellipse fill="none" stroke="#000000" cx="479.6185" cy="-18.1881" rx="27.0966" ry="18"/>
<text text-anchor="middle" x="479.6185" y="-14.4881" font-family="Times,serif" font-size="14.00" fill="#000000">H_3</text>
</g>
<!-- C_1&#45;&#45;H_3 -->
<g id="edge5" class="edge">
<title>C_1&#45;&#45;H_3</title>
<path fill="none" stroke="#000000" d="M430.0728,-163.0006C440.7683,-131.7397 462.8796,-67.1128 473.5698,-35.8674"/>
</g>
<!-- H_4 -->
<g id="node7" class="node">
<title>H_4</title>
<ellipse fill="none" stroke="#000000" cx="478.0496" cy="-343.3921" rx="27.0966" ry="18"/>
<text text-anchor="middle" x="478.0496" y="-339.6921" font-family="Times,serif" font-size="14.00" fill="#000000">H_4</text>
</g>
<!-- C_1&#45;&#45;H_4 -->
<g id="edge6" class="edge">
<title>C_1&#45;&#45;H_4</title>
<path fill="none" stroke="#000000" d="M429.9019,-198.4222C440.2956,-229.7171 461.783,-294.4142 472.1715,-325.6935"/>
</g>
<!-- H_5 -->
<g id="node8" class="node">
<title>H_5</title>
<ellipse fill="none" stroke="#000000" cx="600.9588" cy="-181.5215" rx="27.0966" ry="18"/>
<text text-anchor="middle" x="600.9588" y="-177.8215" font-family="Times,serif" font-size="14.00" fill="#000000">H_5</text>
</g>
<!-- C_1&#45;&#45;H_5 -->
<g id="edge7" class="edge">
<title>C_1&#45;&#45;H_5</title>
<path fill="none" stroke="#000000" d="M451.276,-180.8281C484.4298,-180.9817 540.078,-181.2395 573.3769,-181.3937"/>
</g>
</g>
</svg>
