<?xml version="1.0" encoding="UTF-8" standalone="no"?>
<!DOCTYPE svg PUBLIC "-//W3C//DTD SVG 1.1//EN"
 "http://www.w3.org/Graphics/SVG/1.1/DTD/svg11.dtd">
<!-- Generated by graphviz version 2.40.1 (0)
 -->
<!-- Title: %3 Pages: 1 -->
<svg width="692pt" height="229pt"
 viewBox="0.00 0.00 692.00 229.00" xmlns="http://www.w3.org/2000/svg" xmlns:xlink="http://www.w3.org/1999/xlink">
<g id="graph0" class="graph" transform="scale(1 1) rotate(0) translate(4 225)">
<title>%3</title>
<polygon fill="#ffffff" stroke="transparent" points="-4,4 -4,-225 688,-225 688,4 -4,4"/>
<!-- a -->
<g id="node1" class="node">
<title>a</title>
<ellipse fill="none" stroke="#000000" cx="27" cy="-149" rx="27" ry="18"/>
<text text-anchor="middle" x="27" y="-145.3" font-family="Times,serif" font-size="14.00" fill="#000000">a</text>
</g>
<!-- b -->
<g id="node2" class="node">
<title>b</title>
<ellipse fill="none" stroke="#000000" cx="117" cy="-203" rx="27" ry="18"/>
<text text-anchor="middle" x="117" y="-199.3" font-family="Times,serif" font-size="14.00" fill="#000000">b</text>
</g>
<!-- a&#45;&#45;b -->
<g id="edge1" class="edge">
<title>a&#45;&#45;b</title>
<path fill="none" stroke="#000000" d="M47.4224,-161.2534C62.1514,-170.0909 81.948,-181.9688 96.6584,-190.7951"/>
</g>
<!-- c -->
<g id="node3" class="node">
<title>c</title>
<ellipse fill="none" stroke="#000000" cx="117" cy="-149" rx="27" ry="18"/>
<text text-anchor="middle" x="117" y="-145.3" font-family="Times,serif" font-size="14.00" fill="#000000">c</text>
</g>
<!-- a&#45;&#45;c -->
<g id="edge2" class="edge">
<title>a&#45;&#45;c</title>
<path fill="none" stroke="#000000" d="M54.003,-149C65.2905,-149 78.3867,-149 89.705,-149"/>
</g>
<!-- d -->
<g id="node4" class="node">
<title>d</title>
<ellipse fill="none" stroke="#000000" cx="117" cy="-95" rx="27" ry="18"/>
<text text-anchor="middle" x="117" y="-91.3" font-family="Times,serif" font-size="14.00" fill="#000000">d</text>
</g>
<!-- a&#45;&#45;d -->
<g id="edge3" class="edge">
<title>a&#45;&#45;d</title>
<path fill="none" stroke="#000000" d="M47.4224,-136.7466C62.1514,-127.9091 81.948,-116.0312 96.6584,-107.2049"/>
</g>
<!-- b&#45;&#45;c -->
<g id="edge4" class="edge">
<title>b&#45;&#45;c</title>
<path fill="none" stroke="#000000" d="M117,-184.7902C117,-178.907 117,-173.0238 117,-167.1406"/>
</g>
<!-- e -->
<g id="node5" class="node">
<title>e</title>
<ellipse fill="none" stroke="#000000" cx="207" cy="-203" rx="27" ry="18"/>
<text text-anchor="middle" x="207" y="-199.3" font-family="Times,serif" font-size="14.00" fill="#000000">e</text>
</g>
<!-- b&#45;&#45;e -->
<g id="edge5" class="edge">
<title>b&#45;&#45;e</title>
<path fill="none" stroke="#000000" d="M144.003,-203C155.2905,-203 168.3867,-203 179.705,-203"/>
</g>
<!-- c&#45;&#45;e -->
<g id="edge6" class="edge">
<title>c&#45;&#45;e</title>
<path fill="none" stroke="#000000" d="M137.4224,-161.2534C152.1514,-170.0909 171.948,-181.9688 186.6584,-190.7951"/>
</g>
<!-- f -->
<g id="node6" class="node">
<title>f</title>
<ellipse fill="none" stroke="#000000" cx="207" cy="-149" rx="27" ry="18"/>
<text text-anchor="middle" x="207" y="-145.3" font-family="Times,serif" font-size="14.00" fill="#000000">f</text>
</g>
<!-- c&#45;&#45;f -->
<g id="edge7" class="edge">
<title>c&#45;&#45;f</title>
<path fill="none" stroke="#000000" d="M144.003,-149C155.2905,-149 168.3867,-149 179.705,-149"/>
</g>
<!-- d&#45;&#45;f -->
<g id="edge8" class="edge">
<title>d&#45;&#45;f</title>
<path fill="none" stroke="#000000" d="M137.4224,-107.2534C152.1514,-116.0909 171.948,-127.9688 186.6584,-136.7951"/>
</g>
<!-- g -->
<g id="node7" class="node">
<title>g</title>
<ellipse fill="none" stroke="#000000" cx="207" cy="-95" rx="27" ry="18"/>
<text text-anchor="middle" x="207" y="-91.3" font-family="Times,serif" font-size="14.00" fill="#000000">g</text>
</g>
<!-- d&#45;&#45;g -->
<g id="edge9" class="edge">
<title>d&#45;&#45;g</title>
<path fill="none" stroke="#000000" d="M144.003,-95C155.2905,-95 168.3867,-95 179.705,-95"/>
</g>
<!-- h -->
<g id="node8" class="node">
<title>h</title>
<ellipse fill="none" stroke="#000000" cx="297" cy="-203" rx="27" ry="18"/>
<text text-anchor="middle" x="297" y="-199.3" font-family="Times,serif" font-size="14.00" fill="#000000">h</text>
</g>
<!-- e&#45;&#45;h -->
<g id="edge10" class="edge">
<title>e&#45;&#45;h</title>
<path fill="none" stroke="#000000" d="M234.003,-203C245.2905,-203 258.3867,-203 269.705,-203"/>
</g>
<!-- f&#45;&#45;g -->
<g id="edge11" class="edge">
<title>f&#45;&#45;g</title>
<path fill="none" stroke="#000000" d="M207,-130.7902C207,-124.907 207,-119.0238 207,-113.1406"/>
</g>
<!-- f&#45;&#45;h -->
<g id="edge12" class="edge">
<title>f&#45;&#45;h</title>
<path fill="none" stroke="#000000" d="M227.4224,-161.2534C242.1514,-170.0909 261.948,-181.9688 276.6584,-190.7951"/>
</g>
<!-- i -->
<g id="node9" class="node">
<title>i</title>
<ellipse fill="none" stroke="#000000" cx="297" cy="-149" rx="27" ry="18"/>
<text text-anchor="middle" x="297" y="-145.3" font-family="Times,serif" font-size="14.00" fill="#000000">i</text>
</g>
<!-- f&#45;&#45;i -->
<g id="edge13" class="edge">
<title>f&#45;&#45;i</title>
<path fill="none" stroke="#000000" d="M234.003,-149C245.2905,-149 258.3867,-149 269.705,-149"/>
</g>
<!-- j -->
<g id="node10" class="node">
<title>j</title>
<ellipse fill="none" stroke="#000000" cx="297" cy="-95" rx="27" ry="18"/>
<text text-anchor="middle" x="297" y="-91.3" font-family="Times,serif" font-size="14.00" fill="#000000">j</text>
</g>
<!-- f&#45;&#45;j -->
<g id="edge14" class="edge">
<title>f&#45;&#45;j</title>
<path fill="none" stroke="#000000" d="M227.4224,-136.7466C242.1514,-127.9091 261.948,-116.0312 276.6584,-107.2049"/>
</g>
<!-- k -->
<g id="node11" class="node">
<title>k</title>
<ellipse fill="none" stroke="#000000" cx="297" cy="-41" rx="27" ry="18"/>
<text text-anchor="middle" x="297" y="-37.3" font-family="Times,serif" font-size="14.00" fill="#000000">k</text>
</g>
<!-- g&#45;&#45;k -->
<g id="edge15" class="edge">
<title>g&#45;&#45;k</title>
<path fill="none" stroke="#000000" d="M227.4224,-82.7466C242.1514,-73.9091 261.948,-62.0312 276.6584,-53.2049"/>
</g>
<!-- o -->
<g id="node12" class="node">
<title>o</title>
<ellipse fill="none" stroke="#000000" cx="477" cy="-180" rx="27" ry="18"/>
<text text-anchor="middle" x="477" y="-176.3" font-family="Times,serif" font-size="14.00" fill="#000000">o</text>
</g>
<!-- h&#45;&#45;o -->
<g id="edge16" class="edge">
<title>h&#45;&#45;o</title>
<path fill="none" stroke="#000000" d="M323.3187,-207.3962C347.2279,-210.5674 383.3397,-213.2933 414,-207 428.6874,-203.9853 444.1785,-197.3975 456.1242,-191.4842"/>
</g>
<!-- l -->
<g id="node13" class="node">
<title>l</title>
<ellipse fill="none" stroke="#000000" cx="387" cy="-180" rx="27" ry="18"/>
<text text-anchor="middle" x="387" y="-176.3" font-family="Times,serif" font-size="14.00" fill="#000000">l</text>
</g>
<!-- h&#45;&#45;l -->
<g id="edge17" class="edge">
<title>h&#45;&#45;l</title>
<path fill="none" stroke="#000000" d="M322.5497,-196.4706C334.8142,-193.3364 349.4658,-189.5921 361.698,-186.4661"/>
</g>
<!-- i&#45;&#45;j -->
<g id="edge18" class="edge">
<title>i&#45;&#45;j</title>
<path fill="none" stroke="#000000" d="M297,-130.7902C297,-124.907 297,-119.0238 297,-113.1406"/>
</g>
<!-- i&#45;&#45;l -->
<g id="edge19" class="edge">
<title>i&#45;&#45;l</title>
<path fill="none" stroke="#000000" d="M321.1183,-157.3074C334.0313,-161.7552 349.892,-167.2183 362.8151,-171.6696"/>
</g>
<!-- m -->
<g id="node14" class="node">
<title>m</title>
<ellipse fill="none" stroke="#000000" cx="387" cy="-126" rx="27" ry="18"/>
<text text-anchor="middle" x="387" y="-122.3" font-family="Times,serif" font-size="14.00" fill="#000000">m</text>
</g>
<!-- i&#45;&#45;m -->
<g id="edge20" class="edge">
<title>i&#45;&#45;m</title>
<path fill="none" stroke="#000000" d="M322.5497,-142.4706C334.8142,-139.3364 349.4658,-135.5921 361.698,-132.4661"/>
</g>
<!-- j&#45;&#45;k -->
<g id="edge21" class="edge">
<title>j&#45;&#45;k</title>
<path fill="none" stroke="#000000" d="M297,-76.7902C297,-70.907 297,-65.0238 297,-59.1406"/>
</g>
<!-- j&#45;&#45;m -->
<g id="edge22" class="edge">
<title>j&#45;&#45;m</title>
<path fill="none" stroke="#000000" d="M321.1183,-103.3074C334.0313,-107.7552 349.892,-113.2183 362.8151,-117.6696"/>
</g>
<!-- n -->
<g id="node15" class="node">
<title>n</title>
<ellipse fill="none" stroke="#000000" cx="387" cy="-72" rx="27" ry="18"/>
<text text-anchor="middle" x="387" y="-68.3" font-family="Times,serif" font-size="14.00" fill="#000000">n</text>
</g>
<!-- j&#45;&#45;n -->
<g id="edge23" class="edge">
<title>j&#45;&#45;n</title>
<path fill="none" stroke="#000000" d="M322.5497,-88.4706C334.8142,-85.3364 349.4658,-81.5921 361.698,-78.4661"/>
</g>
<!-- k&#45;&#45;n -->
<g id="edge24" class="edge">
<title>k&#45;&#45;n</title>
<path fill="none" stroke="#000000" d="M321.1183,-49.3074C334.0313,-53.7552 349.892,-59.2183 362.8151,-63.6696"/>
</g>
<!-- r -->
<g id="node16" class="node">
<title>r</title>
<ellipse fill="none" stroke="#000000" cx="477" cy="-18" rx="27" ry="18"/>
<text text-anchor="middle" x="477" y="-14.3" font-family="Times,serif" font-size="14.00" fill="#000000">r</text>
</g>
<!-- k&#45;&#45;r -->
<g id="edge25" class="edge">
<title>k&#45;&#45;r</title>
<path fill="none" stroke="#000000" d="M323.5596,-37.6063C357.5916,-33.2577 416.247,-25.7629 450.3314,-21.4077"/>
</g>
<!-- p -->
<g id="node17" class="node">
<title>p</title>
<ellipse fill="none" stroke="#000000" cx="477" cy="-126" rx="27" ry="18"/>
<text text-anchor="middle" x="477" y="-122.3" font-family="Times,serif" font-size="14.00" fill="#000000">p</text>
</g>
<!-- o&#45;&#45;p -->
<g id="edge33" class="edge">
<title>o&#45;&#45;p</title>
<path fill="none" stroke="#000000" d="M477,-161.7902C477,-155.907 477,-150.0238 477,-144.1406"/>
</g>
<!-- s -->
<g id="node19" class="node">
<title>s</title>
<ellipse fill="none" stroke="#000000" cx="567" cy="-126" rx="27" ry="18"/>
<text text-anchor="middle" x="567" y="-122.3" font-family="Times,serif" font-size="14.00" fill="#000000">s</text>
</g>
<!-- o&#45;&#45;s -->
<g id="edge34" class="edge">
<title>o&#45;&#45;s</title>
<path fill="none" stroke="#000000" d="M497.4224,-167.7466C512.1514,-158.9091 531.948,-147.0312 546.6584,-138.2049"/>
</g>
<!-- l&#45;&#45;o -->
<g id="edge26" class="edge">
<title>l&#45;&#45;o</title>
<path fill="none" stroke="#000000" d="M414.003,-180C425.2905,-180 438.3867,-180 449.705,-180"/>
</g>
<!-- l&#45;&#45;m -->
<g id="edge27" class="edge">
<title>l&#45;&#45;m</title>
<path fill="none" stroke="#000000" d="M387,-161.7902C387,-155.907 387,-150.0238 387,-144.1406"/>
</g>
<!-- m&#45;&#45;o -->
<g id="edge28" class="edge">
<title>m&#45;&#45;o</title>
<path fill="none" stroke="#000000" d="M407.4224,-138.2534C422.1514,-147.0909 441.948,-158.9688 456.6584,-167.7951"/>
</g>
<!-- m&#45;&#45;n -->
<g id="edge29" class="edge">
<title>m&#45;&#45;n</title>
<path fill="none" stroke="#000000" d="M387,-107.7902C387,-101.907 387,-96.0238 387,-90.1406"/>
</g>
<!-- m&#45;&#45;p -->
<g id="edge30" class="edge">
<title>m&#45;&#45;p</title>
<path fill="none" stroke="#000000" d="M414.003,-126C425.2905,-126 438.3867,-126 449.705,-126"/>
</g>
<!-- n&#45;&#45;r -->
<g id="edge31" class="edge">
<title>n&#45;&#45;r</title>
<path fill="none" stroke="#000000" d="M407.4224,-59.7466C422.1514,-50.9091 441.948,-39.0312 456.6584,-30.2049"/>
</g>
<!-- q -->
<g id="node18" class="node">
<title>q</title>
<ellipse fill="none" stroke="#000000" cx="477" cy="-72" rx="27" ry="18"/>
<text text-anchor="middle" x="477" y="-68.3" font-family="Times,serif" font-size="14.00" fill="#000000">q</text>
</g>
<!-- n&#45;&#45;q -->
<g id="edge32" class="edge">
<title>n&#45;&#45;q</title>
<path fill="none" stroke="#000000" d="M414.003,-72C425.2905,-72 438.3867,-72 449.705,-72"/>
</g>
<!-- t -->
<g id="node20" class="node">
<title>t</title>
<ellipse fill="none" stroke="#000000" cx="567" cy="-72" rx="27" ry="18"/>
<text text-anchor="middle" x="567" y="-68.3" font-family="Times,serif" font-size="14.00" fill="#000000">t</text>
</g>
<!-- r&#45;&#45;t -->
<g id="edge40" class="edge">
<title>r&#45;&#45;t</title>
<path fill="none" stroke="#000000" d="M497.4224,-30.2534C512.1514,-39.0909 531.948,-50.9688 546.6584,-59.7951"/>
</g>
<!-- p&#45;&#45;q -->
<g id="edge35" class="edge">
<title>p&#45;&#45;q</title>
<path fill="none" stroke="#000000" d="M477,-107.7902C477,-101.907 477,-96.0238 477,-90.1406"/>
</g>
<!-- p&#45;&#45;s -->
<g id="edge36" class="edge">
<title>p&#45;&#45;s</title>
<path fill="none" stroke="#000000" d="M504.003,-126C515.2905,-126 528.3867,-126 539.705,-126"/>
</g>
<!-- p&#45;&#45;t -->
<g id="edge37" class="edge">
<title>p&#45;&#45;t</title>
<path fill="none" stroke="#000000" d="M497.4224,-113.7466C512.1514,-104.9091 531.948,-93.0312 546.6584,-84.2049"/>
</g>
<!-- q&#45;&#45;r -->
<g id="edge38" class="edge">
<title>q&#45;&#45;r</title>
<path fill="none" stroke="#000000" d="M477,-53.7902C477,-47.907 477,-42.0238 477,-36.1406"/>
</g>
<!-- q&#45;&#45;t -->
<g id="edge39" class="edge">
<title>q&#45;&#45;t</title>
<path fill="none" stroke="#000000" d="M504.003,-72C515.2905,-72 528.3867,-72 539.705,-72"/>
</g>
<!-- z -->
<g id="node21" class="node">
<title>z</title>
<ellipse fill="none" stroke="#000000" cx="657" cy="-99" rx="27" ry="18"/>
<text text-anchor="middle" x="657" y="-95.3" font-family="Times,serif" font-size="14.00" fill="#000000">z</text>
</g>
<!-- s&#45;&#45;z -->
<g id="edge41" class="edge">
<title>s&#45;&#45;z</title>
<path fill="none" stroke="#000000" d="M592.07,-118.479C604.657,-114.7029 619.8509,-110.1447 632.3755,-106.3874"/>
</g>
<!-- t&#45;&#45;z -->
<g id="edge42" class="edge">
<title>t&#45;&#45;z</title>
<path fill="none" stroke="#000000" d="M592.07,-79.521C604.657,-83.2971 619.8509,-87.8553 632.3755,-91.6126"/>
</g>
</g>
</svg>
