<?xml version="1.0" encoding="UTF-8" standalone="no"?>
<!DOCTYPE svg PUBLIC "-//W3C//DTD SVG 1.1//EN"
 "http://www.w3.org/Graphics/SVG/1.1/DTD/svg11.dtd">
<!-- Generated by graphviz version 2.40.1 (0)
 -->
<!-- Title: %3 Pages: 1 -->
<svg width="222pt" height="204pt"
 viewBox="0.00 0.00 222.43 204.43" xmlns="http://www.w3.org/2000/svg" xmlns:xlink="http://www.w3.org/1999/xlink">
<g id="graph0" class="graph" transform="scale(1 1) rotate(0) translate(4 200.4282)">
<title>%3</title>
<polygon fill="#ffffff" stroke="transparent" points="-4,4 -4,-200.4282 218.4282,-200.4282 218.4282,4 -4,4"/>
<!-- a -->
<g id="node1" class="node">
<title>a</title>
<ellipse fill="none" stroke="#000000" cx="107.2141" cy="-18" rx="27" ry="18"/>
<text text-anchor="middle" x="107.2141" y="-14.3" font-family="Times,serif" font-size="14.00" fill="#000000">a</text>
</g>
<!-- b -->
<g id="node2" class="node">
<title>b</title>
<ellipse fill="none" stroke="#000000" cx="27" cy="-98.2141" rx="27" ry="18"/>
<text text-anchor="middle" x="27" y="-94.5141" font-family="Times,serif" font-size="14.00" fill="#000000">b</text>
</g>
<!-- a&#45;&gt;b -->
<g id="edge1" class="edge">
<title>a&#45;&gt;b</title>
<path fill="none" stroke="#000000" d="M92.1264,-33.0877C80.0262,-45.1879 62.8673,-62.3468 49.1996,-76.0145"/>
<polygon fill="#000000" stroke="#000000" points="46.6162,-73.6481 42.02,-83.1941 51.566,-78.5979 46.6162,-73.6481"/>
<text text-anchor="middle" x="61.163" y="-58.3511" font-family="Times,serif" font-size="14.00" fill="#000000">0.2</text>
</g>
<!-- c -->
<g id="node3" class="node">
<title>c</title>
<ellipse fill="none" stroke="#000000" cx="187.4282" cy="-98.2141" rx="27" ry="18"/>
<text text-anchor="middle" x="187.4282" y="-94.5141" font-family="Times,serif" font-size="14.00" fill="#000000">c</text>
</g>
<!-- a&#45;&gt;c -->
<g id="edge2" class="edge">
<title>a&#45;&gt;c</title>
<path fill="none" stroke="#000000" d="M122.3017,-33.0877C134.402,-45.1879 151.5609,-62.3468 165.2285,-76.0145"/>
<polygon fill="#000000" stroke="#000000" points="162.8622,-78.5979 172.4082,-83.1941 167.812,-73.6481 162.8622,-78.5979"/>
<text text-anchor="middle" x="134.2651" y="-58.3511" font-family="Times,serif" font-size="14.00" fill="#000000">0.4</text>
</g>
<!-- c&#45;&gt;b -->
<g id="edge3" class="edge">
<title>c&#45;&gt;b</title>
<path fill="none" stroke="#000000" d="M160.2137,-98.2141C133.86,-98.2141 93.6913,-98.2141 64.353,-98.2141"/>
<polygon fill="#000000" stroke="#000000" points="64.0798,-94.7142 54.0798,-98.2141 64.0797,-101.7142 64.0798,-94.7142"/>
<text text-anchor="middle" x="102.7833" y="-102.0141" font-family="Times,serif" font-size="14.00" fill="#000000">0.6</text>
</g>
<!-- e -->
<g id="node4" class="node">
<title>e</title>
<ellipse fill="none" stroke="#000000" cx="107.2141" cy="-178.4282" rx="27" ry="18"/>
<text text-anchor="middle" x="107.2141" y="-174.7282" font-family="Times,serif" font-size="14.00" fill="#000000">e</text>
</g>
<!-- c&#45;&gt;e -->
<g id="edge4" class="edge">
<title>c&#45;&gt;e</title>
<path fill="none" stroke="#000000" d="M172.3405,-113.3017C160.2403,-125.402 143.0814,-142.5609 129.4137,-156.2285"/>
<polygon fill="#000000" stroke="#000000" points="126.8303,-153.8622 122.2341,-163.4082 131.7801,-158.812 126.8303,-153.8622"/>
<text text-anchor="middle" x="141.3771" y="-138.5651" font-family="Times,serif" font-size="14.00" fill="#000000">0.6</text>
</g>
<!-- e&#45;&gt;b -->
<g id="edge6" class="edge">
<title>e&#45;&gt;b</title>
<path fill="none" stroke="#000000" d="M92.1264,-163.3405C80.0262,-151.2403 62.8673,-134.0814 49.1996,-120.4137"/>
<polygon fill="#000000" stroke="#000000" points="51.566,-117.8303 42.02,-113.2341 46.6162,-122.7801 51.566,-117.8303"/>
<text text-anchor="middle" x="61.163" y="-145.6771" font-family="Times,serif" font-size="14.00" fill="#000000">0.7</text>
</g>
<!-- e&#45;&gt;e -->
<g id="edge5" class="edge">
<title>e&#45;&gt;e</title>
<path fill="none" stroke="#000000" d="M132.6576,-185.1189C143.2419,-185.5803 152.2141,-183.3501 152.2141,-178.4282 152.2141,-175.1982 148.3501,-173.1274 142.7022,-172.2158"/>
<polygon fill="#000000" stroke="#000000" points="142.8128,-168.7172 132.6576,-171.7375 142.4797,-175.7093 142.8128,-168.7172"/>
<text text-anchor="middle" x="161.7141" y="-174.7282" font-family="Times,serif" font-size="14.00" fill="#000000">0.1</text>
</g>
</g>
</svg>
