<?xml version="1.0" encoding="UTF-8" standalone="no"?>
<!DOCTYPE svg PUBLIC "-//W3C//DTD SVG 1.1//EN"
 "http://www.w3.org/Graphics/SVG/1.1/DTD/svg11.dtd">
<!-- Generated by graphviz version 2.40.1 (0)
 -->
<!-- Title: %3 Pages: 1 -->
<svg width="238pt" height="182pt"
 viewBox="0.00 0.00 238.00 182.00" xmlns="http://www.w3.org/2000/svg" xmlns:xlink="http://www.w3.org/1999/xlink">
<g id="graph0" class="graph" transform="scale(1 1) rotate(0) translate(4 178)">
<title>%3</title>
<polygon fill="#ffffff" stroke="transparent" points="-4,4 -4,-178 234,-178 234,4 -4,4"/>
<g id="clust1" class="cluster">
<title>cluster_0</title>
<polygon fill="none" stroke="#000000" points="8,-91 8,-166 222,-166 222,-91 8,-91"/>
<text text-anchor="middle" x="115" y="-150.8" font-family="Times,serif" font-size="14.00" fill="#000000">Alt graf A</text>
</g>
<g id="clust2" class="cluster">
<title>cluster_1</title>
<polygon fill="none" stroke="#000000" points="44,-8 44,-83 186,-83 186,-8 44,-8"/>
<text text-anchor="middle" x="115" y="-67.8" font-family="Times,serif" font-size="14.00" fill="#000000">Alt graf B</text>
</g>
<!-- a -->
<g id="node1" class="node">
<title>a</title>
<ellipse fill="none" stroke="#000000" cx="115" cy="-117" rx="27" ry="18"/>
<text text-anchor="middle" x="115" y="-113.3" font-family="Times,serif" font-size="14.00" fill="#000000">a</text>
</g>
<!-- d -->
<g id="node4" class="node">
<title>d</title>
<ellipse fill="none" stroke="#000000" cx="151" cy="-34" rx="27" ry="18"/>
<text text-anchor="middle" x="151" y="-30.3" font-family="Times,serif" font-size="14.00" fill="#000000">d</text>
</g>
<!-- a&#45;&#45;d -->
<g id="edge2" class="edge">
<title>a&#45;&#45;d</title>
<path fill="none" stroke="#000000" d="M122.6347,-99.3978C128.7853,-85.2173 137.3852,-65.3896 143.4998,-51.2922"/>
</g>
<!-- e -->
<g id="node5" class="node">
<title>e</title>
<ellipse fill="none" stroke="#000000" cx="79" cy="-34" rx="27" ry="18"/>
<text text-anchor="middle" x="79" y="-30.3" font-family="Times,serif" font-size="14.00" fill="#000000">e</text>
</g>
<!-- a&#45;&#45;e -->
<g id="edge1" class="edge">
<title>a&#45;&#45;e</title>
<path fill="none" stroke="#000000" d="M107.3653,-99.3978C101.2147,-85.2173 92.6148,-65.3896 86.5002,-51.2922"/>
</g>
<!-- b -->
<g id="node2" class="node">
<title>b</title>
<ellipse fill="none" stroke="#000000" cx="43" cy="-117" rx="27" ry="18"/>
<text text-anchor="middle" x="43" y="-113.3" font-family="Times,serif" font-size="14.00" fill="#000000">b</text>
</g>
<!-- b&#45;&#45;d -->
<g id="edge3" class="edge">
<title>b&#45;&#45;d</title>
<path fill="none" stroke="#000000" d="M60.834,-103.2942C80.8447,-87.9157 113.118,-63.113 133.1395,-47.7261"/>
</g>
<!-- b&#45;&#45;e -->
<g id="edge4" class="edge">
<title>b&#45;&#45;e</title>
<path fill="none" stroke="#000000" d="M50.6347,-99.3978C56.7853,-85.2173 65.3852,-65.3896 71.4998,-51.2922"/>
</g>
<!-- c -->
<g id="node3" class="node">
<title>c</title>
<ellipse fill="none" stroke="#000000" cx="187" cy="-117" rx="27" ry="18"/>
<text text-anchor="middle" x="187" y="-113.3" font-family="Times,serif" font-size="14.00" fill="#000000">c</text>
</g>
<!-- c&#45;&#45;d -->
<g id="edge5" class="edge">
<title>c&#45;&#45;d</title>
<path fill="none" stroke="#000000" d="M179.3653,-99.3978C173.2147,-85.2173 164.6148,-65.3896 158.5002,-51.2922"/>
</g>
<!-- c&#45;&#45;e -->
<g id="edge6" class="edge">
<title>c&#45;&#45;e</title>
<path fill="none" stroke="#000000" d="M169.166,-103.2942C149.1553,-87.9157 116.882,-63.113 96.8605,-47.7261"/>
</g>
</g>
</svg>
