<?xml version="1.0" encoding="UTF-8" standalone="no"?>
<!DOCTYPE svg PUBLIC "-//W3C//DTD SVG 1.1//EN"
 "http://www.w3.org/Graphics/SVG/1.1/DTD/svg11.dtd">
<!-- Generated by graphviz version 2.40.1 (0)
 -->
<!-- Title: G Pages: 1 -->
<svg width="303pt" height="252pt"
 viewBox="0.00 0.00 302.64 252.40" xmlns="http://www.w3.org/2000/svg" xmlns:xlink="http://www.w3.org/1999/xlink">
<g id="graph0" class="graph" transform="scale(1 1) rotate(0) translate(4 248.4023)">
<title>G</title>
<polygon fill="#ffffff" stroke="transparent" points="-4,4 -4,-248.4023 298.6423,-248.4023 298.6423,4 -4,4"/>
<!-- a -->
<g id="node1" class="node">
<title>a</title>
<ellipse fill="none" stroke="#000000" cx="207.4817" cy="-18" rx="27" ry="18"/>
<text text-anchor="middle" x="207.4817" y="-14.3" font-family="Times,serif" font-size="14.00" fill="#000000">a</text>
</g>
<!-- b -->
<g id="node2" class="node">
<title>b</title>
<ellipse fill="none" stroke="#000000" cx="87.1606" cy="-18" rx="27" ry="18"/>
<text text-anchor="middle" x="87.1606" y="-14.3" font-family="Times,serif" font-size="14.00" fill="#000000">b</text>
</g>
<!-- a&#45;&#45;b -->
<g id="edge1" class="edge">
<title>a&#45;&#45;b</title>
<path fill="none" stroke="#ff0000" stroke-width="3" d="M180.4793,-18C160.8019,-18 134.242,-18 114.4892,-18"/>
</g>
<!-- d -->
<g id="node4" class="node">
<title>d</title>
<ellipse fill="none" stroke="#000000" cx="27" cy="-122.2012" rx="27" ry="18"/>
<text text-anchor="middle" x="27" y="-118.5012" font-family="Times,serif" font-size="14.00" fill="#000000">d</text>
</g>
<!-- a&#45;&#45;d -->
<g id="edge6" class="edge">
<title>a&#45;&#45;d</title>
<path fill="none" stroke="#000000" d="M186.7782,-29.9532C151.9639,-50.0532 82.1136,-90.3813 47.4621,-110.3874"/>
</g>
<!-- c -->
<g id="node3" class="node">
<title>c</title>
<ellipse fill="none" stroke="#000000" cx="87.1606" cy="-226.4023" rx="27" ry="18"/>
<text text-anchor="middle" x="87.1606" y="-222.7023" font-family="Times,serif" font-size="14.00" fill="#000000">c</text>
</g>
<!-- b&#45;&#45;c -->
<g id="edge2" class="edge">
<title>b&#45;&#45;c</title>
<path fill="none" stroke="#000000" d="M87.1606,-36.1298C87.1606,-75.5434 87.1606,-168.6559 87.1606,-208.1661"/>
</g>
<!-- b&#45;&#45;d -->
<g id="edge7" class="edge">
<title>b&#45;&#45;d</title>
<path fill="none" stroke="#ff0000" stroke-width="3" d="M77.2263,-35.2067C66.0127,-54.6291 47.8863,-86.025 36.7494,-105.3146"/>
</g>
<!-- c&#45;&#45;d -->
<g id="edge3" class="edge">
<title>c&#45;&#45;d</title>
<path fill="none" stroke="#ff0000" stroke-width="3" d="M77.2263,-209.1956C66.0127,-189.7732 47.8863,-158.3773 36.7494,-139.0877"/>
</g>
<!-- f -->
<g id="node6" class="node">
<title>f</title>
<ellipse fill="none" stroke="#000000" cx="207.4817" cy="-226.4023" rx="27" ry="18"/>
<text text-anchor="middle" x="207.4817" y="-222.7023" font-family="Times,serif" font-size="14.00" fill="#000000">f</text>
</g>
<!-- c&#45;&#45;f -->
<g id="edge8" class="edge">
<title>c&#45;&#45;f</title>
<path fill="none" stroke="#ff0000" stroke-width="3" d="M114.163,-226.4023C133.8403,-226.4023 160.4003,-226.4023 180.1531,-226.4023"/>
</g>
<!-- e -->
<g id="node5" class="node">
<title>e</title>
<ellipse fill="none" stroke="#000000" cx="267.6423" cy="-122.2012" rx="27" ry="18"/>
<text text-anchor="middle" x="267.6423" y="-118.5012" font-family="Times,serif" font-size="14.00" fill="#000000">e</text>
</g>
<!-- d&#45;&#45;e -->
<g id="edge4" class="edge">
<title>d&#45;&#45;e</title>
<path fill="none" stroke="#000000" d="M54.137,-122.2012C100.4771,-122.2012 194.3323,-122.2012 240.6045,-122.2012"/>
</g>
<!-- e&#45;&#45;f -->
<g id="edge5" class="edge">
<title>e&#45;&#45;f</title>
<path fill="none" stroke="#000000" d="M257.708,-139.4079C246.4944,-158.8303 228.368,-190.2262 217.2311,-209.5158"/>
</g>
</g>
</svg>
