<?xml version="1.0" encoding="UTF-8" standalone="no"?>
<!DOCTYPE svg PUBLIC "-//W3C//DTD SVG 1.1//EN"
 "http://www.w3.org/Graphics/SVG/1.1/DTD/svg11.dtd">
<!-- Generated by graphviz version 2.40.1 (0)
 -->
<!-- Title: %3 Pages: 1 -->
<svg width="181pt" height="318pt"
 viewBox="0.00 0.00 181.00 318.00" xmlns="http://www.w3.org/2000/svg" xmlns:xlink="http://www.w3.org/1999/xlink">
<g id="graph0" class="graph" transform="scale(1 1) rotate(0) translate(4 314)">
<title>%3</title>
<polygon fill="#ffffff" stroke="transparent" points="-4,4 -4,-314 177,-314 177,4 -4,4"/>
<g id="clust1" class="cluster">
<title>cluster_0</title>
<polygon fill="none" stroke="#000000" points="8,-8 8,-302 83,-302 83,-8 8,-8"/>
<text text-anchor="middle" x="45.5" y="-286.8" font-family="Times,serif" font-size="14.00" fill="#000000">Alt graf A</text>
</g>
<g id="clust2" class="cluster">
<title>cluster_1</title>
<polygon fill="none" stroke="#000000" points="91,-152 91,-227 165,-227 165,-152 91,-152"/>
<text text-anchor="middle" x="128" y="-211.8" font-family="Times,serif" font-size="14.00" fill="#000000">Alt graf B</text>
</g>
<!-- a -->
<g id="node1" class="node">
<title>a</title>
<ellipse fill="none" stroke="#000000" cx="48" cy="-253" rx="27" ry="18"/>
<text text-anchor="middle" x="48" y="-249.3" font-family="Times,serif" font-size="14.00" fill="#000000">a</text>
</g>
<!-- b -->
<g id="node2" class="node">
<title>b</title>
<ellipse fill="none" stroke="#000000" cx="48" cy="-178" rx="27" ry="18"/>
<text text-anchor="middle" x="48" y="-174.3" font-family="Times,serif" font-size="14.00" fill="#000000">b</text>
</g>
<!-- a&#45;&gt;b -->
<g id="edge1" class="edge">
<title>a&#45;&gt;b</title>
<path fill="none" stroke="#000000" d="M48,-234.8446C48,-226.3401 48,-216.0076 48,-206.4964"/>
<polygon fill="#000000" stroke="#000000" points="51.5001,-206.2481 48,-196.2482 44.5001,-206.2482 51.5001,-206.2481"/>
</g>
<!-- f -->
<g id="node5" class="node">
<title>f</title>
<ellipse fill="none" stroke="#000000" cx="126" cy="-178" rx="27" ry="18"/>
<text text-anchor="middle" x="126" y="-174.3" font-family="Times,serif" font-size="14.00" fill="#000000">f</text>
</g>
<!-- a&#45;&gt;f -->
<g id="edge4" class="edge">
<title>a&#45;&gt;f</title>
<path fill="none" stroke="#000000" d="M68.7233,-240.8977C74.9009,-236.8489 81.488,-232.0662 87,-227 94.8424,-219.792 102.394,-210.9247 108.7288,-202.7237"/>
<polygon fill="#000000" stroke="#000000" points="111.6774,-204.6245 114.8511,-194.5162 106.0665,-200.4391 111.6774,-204.6245"/>
</g>
<!-- c -->
<g id="node3" class="node">
<title>c</title>
<ellipse fill="none" stroke="#000000" cx="48" cy="-106" rx="27" ry="18"/>
<text text-anchor="middle" x="48" y="-102.3" font-family="Times,serif" font-size="14.00" fill="#000000">c</text>
</g>
<!-- b&#45;&gt;c -->
<g id="edge2" class="edge">
<title>b&#45;&gt;c</title>
<path fill="none" stroke="#000000" d="M48,-159.8314C48,-152.131 48,-142.9743 48,-134.4166"/>
<polygon fill="#000000" stroke="#000000" points="51.5001,-134.4132 48,-124.4133 44.5001,-134.4133 51.5001,-134.4132"/>
</g>
<!-- d -->
<g id="node4" class="node">
<title>d</title>
<ellipse fill="none" stroke="#000000" cx="48" cy="-34" rx="27" ry="18"/>
<text text-anchor="middle" x="48" y="-30.3" font-family="Times,serif" font-size="14.00" fill="#000000">d</text>
</g>
<!-- c&#45;&gt;d -->
<g id="edge3" class="edge">
<title>c&#45;&gt;d</title>
<path fill="none" stroke="#000000" d="M48,-87.8314C48,-80.131 48,-70.9743 48,-62.4166"/>
<polygon fill="#000000" stroke="#000000" points="51.5001,-62.4132 48,-52.4133 44.5001,-62.4133 51.5001,-62.4132"/>
</g>
<!-- f&#45;&gt;c -->
<g id="edge5" class="edge">
<title>f&#45;&gt;c</title>
<path fill="none" stroke="#000000" d="M109.8383,-163.0816C98.6786,-152.7802 83.6666,-138.923 71.2285,-127.4417"/>
<polygon fill="#000000" stroke="#000000" points="73.5961,-124.864 63.8741,-120.653 68.8481,-130.0076 73.5961,-124.864"/>
</g>
</g>
</svg>
