<?xml version="1.0" encoding="UTF-8" standalone="no"?>
<!DOCTYPE svg PUBLIC "-//W3C//DTD SVG 1.1//EN"
 "http://www.w3.org/Graphics/SVG/1.1/DTD/svg11.dtd">
<!-- Generated by graphviz version 2.40.1 (0)
 -->
<!-- Title: %3 Pages: 1 -->
<svg width="332pt" height="353pt"
 viewBox="0.00 0.00 331.85 353.14" xmlns="http://www.w3.org/2000/svg" xmlns:xlink="http://www.w3.org/1999/xlink">
<g id="graph0" class="graph" transform="scale(1 1) rotate(0) translate(4 349.1362)">
<title>%3</title>
<polygon fill="#ffffff" stroke="transparent" points="-4,4 -4,-349.1362 327.8536,-349.1362 327.8536,4 -4,4"/>
<!-- a -->
<g id="node1" class="node">
<title>a</title>
<ellipse fill="none" stroke="#000000" cx="28.8103" cy="-94.3431" rx="27" ry="18"/>
<text text-anchor="middle" x="28.8103" y="-90.6431" font-family="Times,serif" font-size="14.00" fill="#000000">a</text>
</g>
<!-- b -->
<g id="node2" class="node">
<title>b</title>
<ellipse fill="none" stroke="#000000" cx="163.4145" cy="-18" rx="27" ry="18"/>
<text text-anchor="middle" x="163.4145" y="-14.3" font-family="Times,serif" font-size="14.00" fill="#000000">b</text>
</g>
<!-- a&#45;&#45;b -->
<g id="edge1" class="edge">
<title>a&#45;&#45;b</title>
<path fill="none" stroke="#000000" d="M49.5472,-82.5818C74.7681,-68.2773 117.101,-44.2675 142.4322,-29.9004"/>
</g>
<!-- c -->
<g id="node3" class="node">
<title>c</title>
<ellipse fill="none" stroke="#000000" cx="295.2454" cy="-251.6252" rx="27" ry="18"/>
<text text-anchor="middle" x="295.2454" y="-247.9252" font-family="Times,serif" font-size="14.00" fill="#000000">c</text>
</g>
<!-- a&#45;&#45;c -->
<g id="edge7" class="edge">
<title>a&#45;&#45;c</title>
<path fill="none" stroke="#000000" d="M49.2746,-106.4236C98.869,-135.7002 225.0452,-210.1846 274.7113,-239.5035"/>
</g>
<!-- d -->
<g id="node4" class="node">
<title>d</title>
<ellipse fill="none" stroke="#000000" cx="296.8536" cy="-97.4964" rx="27" ry="18"/>
<text text-anchor="middle" x="296.8536" y="-93.7964" font-family="Times,serif" font-size="14.00" fill="#000000">d</text>
</g>
<!-- a&#45;&#45;d -->
<g id="edge8" class="edge">
<title>a&#45;&#45;d</title>
<path fill="none" stroke="#000000" d="M55.9868,-94.6628C107.3613,-95.2672 218.1753,-96.5708 269.6052,-97.1759"/>
</g>
<!-- e -->
<g id="node5" class="node">
<title>e</title>
<ellipse fill="none" stroke="#000000" cx="27" cy="-248.2342" rx="27" ry="18"/>
<text text-anchor="middle" x="27" y="-244.5342" font-family="Times,serif" font-size="14.00" fill="#000000">e</text>
</g>
<!-- a&#45;&#45;e -->
<g id="edge9" class="edge">
<title>a&#45;&#45;e</title>
<path fill="none" stroke="#000000" d="M28.5955,-112.6007C28.2471,-142.2184 27.5627,-200.3979 27.2145,-230.0003"/>
</g>
<!-- f -->
<g id="node6" class="node">
<title>f</title>
<ellipse fill="none" stroke="#000000" cx="159.4392" cy="-327.1362" rx="27" ry="18"/>
<text text-anchor="middle" x="159.4392" y="-323.4362" font-family="Times,serif" font-size="14.00" fill="#000000">f</text>
</g>
<!-- a&#45;&#45;f -->
<g id="edge6" class="edge">
<title>a&#45;&#45;f</title>
<path fill="none" stroke="#000000" d="M38.4157,-111.4609C62.573,-154.5115 125.6473,-266.9158 149.8196,-309.9933"/>
</g>
<!-- b&#45;&#45;c -->
<g id="edge2" class="edge">
<title>b&#45;&#45;c</title>
<path fill="none" stroke="#000000" d="M173.1083,-35.179C197.5473,-78.4888 261.4533,-191.7402 285.7151,-234.7361"/>
</g>
<!-- b&#45;&#45;d -->
<g id="edge10" class="edge">
<title>b&#45;&#45;d</title>
<path fill="none" stroke="#000000" d="M183.681,-30.0738C208.7616,-45.0155 251.228,-70.315 276.3964,-85.309"/>
</g>
<!-- b&#45;&#45;e -->
<g id="edge11" class="edge">
<title>b&#45;&#45;e</title>
<path fill="none" stroke="#000000" d="M153.3836,-34.9297C128.1564,-77.507 62.2886,-188.6757 37.0456,-231.2797"/>
</g>
<!-- b&#45;&#45;f -->
<g id="edge12" class="edge">
<title>b&#45;&#45;f</title>
<path fill="none" stroke="#000000" d="M163.1777,-36.4121C162.4707,-91.3949 160.3801,-253.9638 159.6747,-308.8206"/>
</g>
<!-- c&#45;&#45;d -->
<g id="edge3" class="edge">
<title>c&#45;&#45;d</title>
<path fill="none" stroke="#000000" d="M295.4362,-233.3394C295.7457,-203.6759 296.3537,-145.4066 296.6631,-115.7585"/>
</g>
<!-- c&#45;&#45;e -->
<g id="edge13" class="edge">
<title>c&#45;&#45;e</title>
<path fill="none" stroke="#000000" d="M268.0484,-251.2814C216.6352,-250.6315 105.7377,-249.2295 54.269,-248.5789"/>
</g>
<!-- c&#45;&#45;f -->
<g id="edge14" class="edge">
<title>c&#45;&#45;f</title>
<path fill="none" stroke="#000000" d="M274.3233,-263.2583C248.8772,-277.4069 206.1662,-301.155 180.6088,-315.3655"/>
</g>
<!-- d&#45;&#45;e -->
<g id="edge4" class="edge">
<title>d&#45;&#45;e</title>
<path fill="none" stroke="#000000" d="M276.1267,-109.0743C225.896,-137.1327 98.1009,-208.5179 47.7975,-236.6169"/>
</g>
<!-- d&#45;&#45;f -->
<g id="edge15" class="edge">
<title>d&#45;&#45;f</title>
<path fill="none" stroke="#000000" d="M286.7492,-114.3824C261.3371,-156.8498 194.9864,-267.7315 169.5584,-310.2255"/>
</g>
<!-- e&#45;&#45;f -->
<g id="edge5" class="edge">
<title>e&#45;&#45;f</title>
<path fill="none" stroke="#000000" d="M47.4034,-260.3897C72.3637,-275.2601 114.3584,-300.2788 139.23,-315.0963"/>
</g>
</g>
</svg>
