<?xml version="1.0" encoding="UTF-8" standalone="no"?>
<!DOCTYPE svg PUBLIC "-//W3C//DTD SVG 1.1//EN"
 "http://www.w3.org/Graphics/SVG/1.1/DTD/svg11.dtd">
<!-- Generated by graphviz version 2.40.1 (0)
 -->
<!-- Title: g Pages: 1 -->
<svg width="242pt" height="131pt"
 viewBox="0.00 0.00 242.00 131.00" xmlns="http://www.w3.org/2000/svg" xmlns:xlink="http://www.w3.org/1999/xlink">
<g id="graph0" class="graph" transform="scale(1 1) rotate(0) translate(4 127)">
<title>g</title>
<polygon fill="#ffffff" stroke="transparent" points="-4,4 -4,-127 238,-127 238,4 -4,4"/>
<!-- A1 -->
<g id="node1" class="node">
<title>A1</title>
<text text-anchor="middle" x="27" y="-101.3" font-family="Times,serif" font-size="14.00" fill="#000000">A1</text>
</g>
<!-- B1 -->
<g id="node2" class="node">
<title>B1</title>
<text text-anchor="middle" x="27" y="-14.3" font-family="Times,serif" font-size="14.00" fill="#000000">B1</text>
</g>
<!-- A1&#45;&gt;B1 -->
<g id="edge1" class="edge">
<title>A1&#45;&gt;B1</title>
<path fill="none" stroke="#000000" d="M27,-86.9735C27,-75.1918 27,-59.5607 27,-46.1581"/>
<polygon fill="#000000" stroke="#000000" points="30.5001,-46.0033 27,-36.0034 23.5001,-46.0034 30.5001,-46.0033"/>
</g>
<!-- A2 -->
<g id="node3" class="node">
<title>A2</title>
<text text-anchor="middle" x="117" y="-101.3" font-family="Times,serif" font-size="14.00" fill="#000000">A2</text>
</g>
<!-- A1&#45;&gt;A2 -->
<g id="edge4" class="edge">
<title>A1&#45;&gt;A2</title>
<path fill="none" stroke="#000000" d="M54.003,-105C62.0277,-105 70.9665,-105 79.5309,-105"/>
<polygon fill="#000000" stroke="#000000" points="79.7051,-108.5001 89.705,-105 79.705,-101.5001 79.7051,-108.5001"/>
<text text-anchor="middle" x="72" y="-111.8" font-family="Times,serif" font-size="14.00" fill="#000000">f</text>
</g>
<!-- B3 -->
<g id="node6" class="node">
<title>B3</title>
<text text-anchor="middle" x="198" y="-14.3" font-family="Times,serif" font-size="14.00" fill="#000000">B3</text>
</g>
<!-- B1&#45;&gt;B3 -->
<g id="edge7" class="edge">
<title>B1:s&#45;&gt;B3:s</title>
<path fill="none" stroke="#000000" d="M27,0C27,0 151.0021,0 187.8153,0"/>
<polygon fill="#000000" stroke="#000000" points="188,-3.5001 198,0 188,3.4999 188,-3.5001"/>
<text text-anchor="middle" x="91" y="-57.8" font-family="Times,serif" font-size="14.00" fill="#000000">(g o f)&#39;</text>
</g>
<!-- B2 -->
<g id="node4" class="node">
<title>B2</title>
<text text-anchor="middle" x="108" y="-14.3" font-family="Times,serif" font-size="14.00" fill="#000000">B2</text>
</g>
<!-- A2&#45;&gt;B2 -->
<g id="edge2" class="edge">
<title>A2&#45;&gt;B2</title>
<path fill="none" stroke="#000000" d="M115.2522,-86.5814C114.3173,-76.8837 113.1288,-64.795 112,-54 111.7462,-51.5725 111.4773,-49.0536 111.2039,-46.5268"/>
<polygon fill="#000000" stroke="#000000" points="114.6525,-45.8668 110.0807,-36.3092 107.6945,-46.6318 114.6525,-45.8668"/>
</g>
<!-- A3 -->
<g id="node5" class="node">
<title>A3</title>
<text text-anchor="middle" x="207" y="-101.3" font-family="Times,serif" font-size="14.00" fill="#000000">A3</text>
</g>
<!-- A2&#45;&gt;A3 -->
<g id="edge5" class="edge">
<title>A2&#45;&gt;A3</title>
<path fill="none" stroke="#000000" d="M144.003,-105C152.0277,-105 160.9665,-105 169.5309,-105"/>
<polygon fill="#000000" stroke="#000000" points="169.7051,-108.5001 179.705,-105 169.705,-101.5001 169.7051,-108.5001"/>
<text text-anchor="middle" x="162" y="-111.8" font-family="Times,serif" font-size="14.00" fill="#000000">g</text>
</g>
<!-- B2&#45;&gt;B3 -->
<g id="edge6" class="edge">
<title>B2&#45;&gt;B3</title>
<path fill="none" stroke="#000000" d="M135.003,-18C143.0277,-18 151.9665,-18 160.5309,-18"/>
<polygon fill="#000000" stroke="#000000" points="160.7051,-21.5001 170.705,-18 160.705,-14.5001 160.7051,-21.5001"/>
<text text-anchor="middle" x="153" y="-24.8" font-family="Times,serif" font-size="14.00" fill="#000000">g&#39;</text>
</g>
<!-- A3&#45;&gt;B3 -->
<g id="edge3" class="edge">
<title>A3&#45;&gt;B3</title>
<path fill="none" stroke="#000000" d="M205.1352,-86.9735C203.9164,-75.1918 202.2994,-59.5607 200.9129,-46.1581"/>
<polygon fill="#000000" stroke="#000000" points="204.3729,-45.5901 199.8624,-36.0034 197.4101,-46.3105 204.3729,-45.5901"/>
</g>
</g>
</svg>
